# xmcd
#
# Track frame offsets:
#	150
#	16570
#	34940
#	50245
#	65525
#	82847
#	99807
#	116212
#	127350
#	140240
#	154360
#
# Disc length: 2452 seconds
#
# Revision: 5
# Processed by: cddbd v1.5.1PL0 Copyright (c) Steve Scherf et al.
# Submitted via: MusicWizard 7.1.1b
#
DISCID=9b09920b
DTITLE=Righteous Brothers - Unchained Melody Greatest Hits
DYEAR=1993
DGENRE=Oldie
TTITLE0=Unchained Melody
TTITLE1=Just Once In My Life
TTITLE2=Rock and Roll Heaven
TTITLE3=Soul And Inspiration
TTITLE4=You?ve Lost That Lovin? Feelin?
TTITLE5=Hung On You
TTITLE6=Try To Find Another Woman
TTITLE7=Little Latin Lupe Lu
TTITLE8=Ebbtide
TTITLE9=My Babe
TTITLE10=Unchained Melody Extended Version
EXTD=
EXTT0=Yesterday: 04.03.94 , 12.09.03
EXTT1=
EXTT2=
EXTT3=
EXTT4=
EXTT5=
EXTT6=
EXTT7=
EXTT8=
EXTT9=
EXTT10=
PLAYORDER=
